<svg width="32" height="28" viewBox="0 0 32 28" fill="none" xmlns="http://www.w3.org/2000/svg">
<path d="M22.6916 3.09104H4.36468C3.97891 3.09104 3.60895 2.93779 3.33618 2.66501C3.0634 2.39222 2.91016 2.02224 2.91016 1.63646C2.91016 1.25069 3.0634 0.880708 3.33618 0.607921C3.60895 0.335135 3.97891 0.181885 4.36468 0.181885H22.6916C27.829 0.181885 32.0006 4.35362 32.0006 9.49119V22.0006C32.0006 22.3864 31.8473 22.7563 31.5745 23.0291C31.3018 23.3019 30.9318 23.4552 30.546 23.4552C30.1603 23.4552 29.7903 23.3019 29.5175 23.0291C29.2448 22.7563 29.0915 22.3864 29.0915 22.0006V9.49119C29.0915 5.95947 26.2232 3.09104 22.6916 3.09104Z" fill="white"/>
<path fill-rule="evenodd" clip-rule="evenodd" d="M22.6905 5.99951H3.49085C1.56361 5.99951 0 7.69264 0 9.78142V24.0363C0 26.1251 1.56361 27.8182 3.49085 27.8182H22.6905C24.6178 27.8182 26.1814 26.1251 26.1814 24.0363V9.78142C26.1814 7.69264 24.6178 5.99951 22.6905 5.99951Z" fill="white"/>
<path d="M17.3777 22.1864C16.5537 22.2079 15.9521 21.2684 15.5249 20.5817C15.1841 20.0335 14.0453 18.0571 14.2874 14.2902C14.4188 12.245 14.5443 10.2978 15.8767 9.63706C16.607 9.27466 17.6665 9.31612 18.0214 9.77958C18.3447 10.202 17.8834 10.7139 17.6144 12.1831C17.4135 13.2818 17.4613 14.1432 17.4932 14.7148C17.5674 16.0485 17.8694 17.1298 18.0486 17.6877C18.6184 19.4645 19.1815 19.8055 18.9713 20.6595C18.7874 21.405 18.1061 22.1679 17.3781 22.1868L17.3777 22.1864Z" fill="#FB6379"/>
<path d="M11.4061 12.0007C11.5083 11.8426 11.649 11.5828 11.7209 11.2359C11.789 10.9079 11.7687 10.6307 11.7408 10.4511C11.8721 10.3982 12.7338 10.0654 13.4797 10.4919C13.618 10.5711 13.9476 10.7595 14.0848 11.1508C14.2675 11.672 13.9636 12.1366 13.9169 12.2054C14.0483 12.2117 14.292 12.2421 14.5322 12.3949C15.027 12.7096 15.0771 13.27 15.0825 13.3478C15.2182 13.3733 15.6232 13.4662 15.9532 13.8172C16.2307 14.1126 16.3073 14.4324 16.331 14.5682C16.1646 14.5216 15.7981 14.4435 15.3779 14.5682C15.1914 14.6238 15.0452 14.7041 14.9399 14.7744C15.0266 14.8725 15.1513 15.0384 15.2275 15.2701C15.2757 15.4174 15.4153 15.9279 15.0962 16.4143C15.0686 16.4565 14.7681 16.8948 14.1956 17.0033C13.6142 17.1132 13.2519 16.9 12.969 16.2899C12.7991 16.2899 12.6328 16.3029 12.4695 16.2873C12.0478 16.2474 11.7886 16.0416 11.7788 15.611C11.7761 15.4867 11.7711 15.2975 11.8997 15.1953C12.0431 15.0817 12.2701 15.1413 12.489 15.199C12.7361 15.2642 12.9079 15.3671 12.9627 15.4011C13.4381 15.6973 13.7257 16.1652 13.8446 16.381C13.9849 16.1478 14.1878 15.7306 14.0479 15.3327C13.5854 14.0156 9.81412 14.1736 9.80557 13.6828C9.8044 13.608 9.88991 13.4892 10.3991 13.3359C10.2953 13.25 10.0189 13.0442 9.59841 12.9902C9.2109 12.9406 8.90929 13.0461 8.78181 13.099C8.42268 12.7007 8.30685 12.1639 8.49652 11.712C8.76626 11.0697 9.54088 10.8731 10.0493 10.9124C10.1177 10.9176 10.3594 10.9442 10.6307 11.0875C11.1605 11.3666 11.3544 11.8545 11.4061 12.0003V12.0007ZM14.0553 14.248C14.1727 14.2732 14.2706 14.231 14.2881 14.2229C14.4914 14.13 14.5567 13.8501 14.5617 13.6191C14.5672 13.3759 14.5147 13.0849 14.3095 12.975C14.2799 12.9591 14.1816 12.9124 14.0631 12.9324C13.8108 12.9754 13.6623 13.2908 13.6441 13.5292C13.6211 13.8283 13.7887 14.1907 14.0549 14.2477L14.0553 14.248Z" fill="white"/>
<path d="M10.9387 11.989C11.0409 11.832 11.1816 11.574 11.2535 11.2301C11.3215 10.9048 11.3013 10.6293 11.2733 10.4513C11.4047 10.3987 12.2664 10.0685 13.0122 10.4916C13.1506 10.5701 13.4802 10.7571 13.6174 11.1457C13.8001 11.6632 13.4961 12.1241 13.4495 12.1926C13.6089 12.2085 13.8339 12.2529 14.0648 12.3807C14.6777 12.7201 14.8207 13.3635 14.8456 13.4875C14.9525 13.493 15.3688 13.5267 15.684 13.8477C15.8429 14.0094 15.9156 14.1827 15.9502 14.2911C15.7885 14.2667 15.4407 14.2356 15.0493 14.3829C14.7706 14.4877 14.5809 14.641 14.4729 14.7428C14.5595 14.8401 14.6843 15.0045 14.7605 15.2347C14.8087 15.3809 14.9482 15.8873 14.6291 16.3704C14.6015 16.4126 14.3011 16.8476 13.7286 16.9549C13.1471 17.0641 12.7849 16.8524 12.5019 16.2468C12.3321 16.2468 12.1657 16.2597 12.0025 16.2442C11.5808 16.2046 11.3215 16.0002 11.3118 15.5731C11.3025 15.1607 11.5574 14.9671 11.9496 14.9082C12.6963 14.7964 13.2882 15.1537 13.6271 16.0176C13.6672 15.8451 13.6979 15.5745 13.5809 15.2969C13.3275 14.6957 12.5381 14.4307 11.9593 14.4644C10.8528 14.5292 10.1073 15.7123 9.94835 16.6055C9.77811 17.562 10.2441 18.5097 11.1319 19.0013C11.7802 19.3603 12.4619 19.3237 13.1117 19.0527C13.5813 18.8569 14.0127 18.5711 14.4437 18.3009C15.3186 17.7519 16.0878 17.6723 16.6782 18.094C17.2274 18.486 17.3871 19.33 17.0812 20.2118C16.8026 21.0147 16.2642 21.6258 15.5518 22.113C12.4693 24.2208 8.29611 22.9751 7.04653 19.5732C6.27308 17.4665 7.26885 14.896 9.33814 13.6596C9.53442 13.5423 9.7338 13.4297 9.93164 13.3154C9.74818 13.2769 9.46018 13.2384 9.11387 13.2835C8.8041 13.3239 8.56118 13.416 8.40105 13.4912C7.86391 13.0318 7.75936 12.3118 8.02909 11.7036C8.23509 11.2394 8.99922 10.8651 9.58183 10.9099C9.65024 10.9151 9.89199 10.9418 10.1633 11.0836C10.693 11.3604 10.887 11.845 10.9387 11.9897V11.989ZM13.5879 14.2197C13.7052 14.2445 13.8032 14.2027 13.8207 14.1949C14.0239 14.1027 14.0892 13.8247 14.0943 13.5956C14.0997 13.3542 14.0473 13.0651 13.8421 12.9563C13.8125 12.9407 13.7142 12.8941 13.5956 12.9141C13.3434 12.9566 13.1949 13.2698 13.1766 13.5067C13.1537 13.8036 13.3212 14.1634 13.5875 14.2201L13.5879 14.2197Z" fill="#FB6379"/>
</svg>
