<svg width="14" height="15" viewBox="0 0 14 15" fill="none" xmlns="http://www.w3.org/2000/svg">
<path d="M6 1.32227V3.32227C6 3.87539 6.44688 4.32227 7 4.32227H9C9.55313 4.32227 10 3.87539 10 3.32227V1.32227C10 0.769141 9.55313 0.322266 9 0.322266H7C6.44688 0.322266 6 0.769141 6 1.32227ZM2.58437 5.79102C2.10625 6.06602 1.94375 6.67852 2.21875 7.15664L3.21875 8.88789C3.49375 9.36602 4.10625 9.52851 4.58437 9.25352L6.31563 8.25352C6.79375 7.97852 6.95625 7.36602 6.68125 6.88789L5.68125 5.15664C5.40625 4.67852 4.79375 4.51602 4.31563 4.79102L2.58437 5.79102ZM9 5.32227C8.44687 5.32227 8 5.76914 8 6.32227V8.32227C8 8.87539 8.44687 9.32227 9 9.32227H11C11.5531 9.32227 12 8.87539 12 8.32227V6.32227C12 5.76914 11.5531 5.32227 11 5.32227H9ZM11 10.3223C10.4469 10.3223 10 10.7691 10 11.3223V13.3223C10 13.8754 10.4469 14.3223 11 14.3223H13C13.5531 14.3223 14 13.8754 14 13.3223V11.3223C14 10.7691 13.5531 10.3223 13 10.3223H11ZM5 11.3223V13.3223C5 13.8754 5.44688 14.3223 6 14.3223H8C8.55313 14.3223 9 13.8754 9 13.3223V11.3223C9 10.7691 8.55313 10.3223 8 10.3223H6C5.44688 10.3223 5 10.7691 5 11.3223ZM1 10.3223C0.446875 10.3223 0 10.7691 0 11.3223V13.3223C0 13.8754 0.446875 14.3223 1 14.3223H3C3.55312 14.3223 4 13.8754 4 13.3223V11.3223C4 10.7691 3.55312 10.3223 3 10.3223H1Z" fill="white"/>
</svg>
