<svg width="14" height="16" viewBox="0 0 14 16" fill="none" xmlns="http://www.w3.org/2000/svg">
<path d="M8.12778 0.488405C7.81218 0.202 7.41273 0.0449219 7 0.0449219C6.58727 0.0449219 6.18782 0.202 5.87222 0.488405L0.622222 5.25795C0.427357 5.43479 0.270713 5.65532 0.163238 5.90413C0.0557635 6.15295 5.26779e-05 6.42403 0 6.69844V14.4913C0 15.3004 0.609778 15.957 1.36111 15.957H3.69444C4.05543 15.957 4.40164 15.8025 4.6569 15.5277C4.91215 15.2528 5.05556 14.88 5.05556 14.4913V11.1388C5.05556 10.5693 5.47711 10.107 6.00211 10.092H7.99789C8.25126 10.0992 8.49201 10.2126 8.66882 10.4082C8.84563 10.6037 8.94453 10.8659 8.94444 11.1388V14.4913C8.94444 15.3004 9.55422 15.957 10.3056 15.957H12.6389C12.9999 15.957 13.3461 15.8025 13.6013 15.5277C13.8566 15.2528 14 14.88 14 14.4913V6.6976C13.9999 6.42319 13.9442 6.15211 13.8368 5.9033C13.7293 5.65448 13.5726 5.43395 13.3778 5.25711L8.12778 0.488405Z" fill="white"/>
</svg>
