<svg width="14" height="10" viewBox="0 0 14 10" fill="none" xmlns="http://www.w3.org/2000/svg">
<path d="M7 0.5C7.54148 0.5 8.06079 0.728879 8.44368 1.13629C8.82656 1.54369 9.04167 2.09625 9.04167 2.67241C9.04167 3.24857 8.82656 3.80114 8.44368 4.20854C8.06079 4.61595 7.54148 4.84483 7 4.84483C6.45852 4.84483 5.93921 4.61595 5.55632 4.20854C5.17344 3.80114 4.95833 3.24857 4.95833 2.67241C4.95833 2.09625 5.17344 1.54369 5.55632 1.13629C5.93921 0.728879 6.45852 0.5 7 0.5ZM2.91667 2.05172C3.24333 2.05172 3.54667 2.14483 3.80917 2.31241C3.72167 3.2 3.96667 4.08138 4.46833 4.77034C4.17667 5.36621 3.59333 5.77586 2.91667 5.77586C2.45254 5.77586 2.00742 5.57968 1.67923 5.23047C1.35104 4.88127 1.16667 4.40764 1.16667 3.91379C1.16667 3.41994 1.35104 2.94632 1.67923 2.59711C2.00742 2.24791 2.45254 2.05172 2.91667 2.05172ZM11.0833 2.05172C11.5475 2.05172 11.9926 2.24791 12.3208 2.59711C12.649 2.94632 12.8333 3.41994 12.8333 3.91379C12.8333 4.40764 12.649 4.88127 12.3208 5.23047C11.9926 5.57968 11.5475 5.77586 11.0833 5.77586C10.4067 5.77586 9.82333 5.36621 9.53167 4.77034C10.04 4.07159 10.2761 3.19141 10.1908 2.31241C10.4533 2.14483 10.7567 2.05172 11.0833 2.05172ZM3.20833 8.41379C3.20833 7.12897 4.90583 6.08621 7 6.08621C9.09417 6.08621 10.7917 7.12897 10.7917 8.41379V9.5H3.20833V8.41379ZM0 9.5V8.56896C0 7.70621 1.1025 6.98 2.59583 6.76897C2.25167 7.19103 2.04167 7.77448 2.04167 8.41379V9.5H0ZM14 9.5H11.9583V8.41379C11.9583 7.77448 11.7483 7.19103 11.4042 6.76897C12.8975 6.98 14 7.70621 14 8.56896V9.5Z" fill="white"/>
</svg>
