<svg width="14" height="20" viewBox="0 0 14 20" fill="none" xmlns="http://www.w3.org/2000/svg">
<path fill-rule="evenodd" clip-rule="evenodd" d="M0.586 1.16603C-5.96046e-08 1.83206 0 2.90272 0 5.0463V15.2755C0 17.419 -5.96046e-08 18.4897 0.586 19.1557C1.172 19.8218 2.114 19.8218 4 19.8218H10C11.886 19.8218 12.828 19.8218 13.414 19.1557C14 18.4897 14 17.419 14 15.2755V5.0463C14 2.90272 14 1.83206 13.414 1.16603C12.828 0.5 11.886 0.5 10 0.5H4C2.114 0.5 1.172 0.5 0.586 1.16603ZM4 5.0463C3.73478 5.0463 3.48043 5.16604 3.29289 5.37919C3.10536 5.59234 3 5.88143 3 6.18287C3 6.48431 3.10536 6.7734 3.29289 6.98655C3.48043 7.1997 3.73478 7.31944 4 7.31944H10C10.2652 7.31944 10.5196 7.1997 10.7071 6.98655C10.8946 6.7734 11 6.48431 11 6.18287C11 5.88143 10.8946 5.59234 10.7071 5.37919C10.5196 5.16604 10.2652 5.0463 10 5.0463H4ZM4 9.59259C3.73478 9.59259 3.48043 9.71234 3.29289 9.92549C3.10536 10.1386 3 10.4277 3 10.7292C3 11.0306 3.10536 11.3197 3.29289 11.5328C3.48043 11.746 3.73478 11.8657 4 11.8657H10C10.2652 11.8657 10.5196 11.746 10.7071 11.5328C10.8946 11.3197 11 11.0306 11 10.7292C11 10.4277 10.8946 10.1386 10.7071 9.92549C10.5196 9.71234 10.2652 9.59259 10 9.59259H4ZM4 14.1389C3.73478 14.1389 3.48043 14.2586 3.29289 14.4718C3.10536 14.6849 3 14.974 3 15.2755C3 15.5769 3.10536 15.866 3.29289 16.0791C3.48043 16.2923 3.73478 16.412 4 16.412H8C8.26522 16.412 8.51957 16.2923 8.70711 16.0791C8.89464 15.866 9 15.5769 9 15.2755C9 14.974 8.89464 14.6849 8.70711 14.4718C8.51957 14.2586 8.26522 14.1389 8 14.1389H4Z" fill="white"/>
</svg>
