<svg width="14" height="16" viewBox="0 0 14 16" fill="none" xmlns="http://www.w3.org/2000/svg">
<path d="M3.68421 8.16663V5.03505C3.68421 4.72804 3.79179 4.4672 4.00695 4.25253C4.2221 4.03786 4.48295 3.93028 4.78947 3.92979C5.096 3.9293 5.35709 4.03688 5.57274 4.25253C5.78838 4.46818 5.89572 4.72902 5.89474 5.03505V8.16663C5.89474 8.47365 5.7874 8.73474 5.57274 8.9499C5.35807 9.16505 5.09698 9.27239 4.78947 9.2719C4.48196 9.2714 4.22112 9.16407 4.00695 8.9499C3.79277 8.73572 3.68519 8.47463 3.68421 8.16663ZM7.36842 8.00084V2.08769C7.36842 1.78067 7.476 1.51983 7.69116 1.30516C7.90631 1.09049 8.16716 0.982915 8.47368 0.982424C8.78021 0.981932 9.0413 1.08951 9.25695 1.30516C9.47259 1.52081 9.57993 1.78165 9.57895 2.08769V8.00084C9.57895 8.36926 9.46547 8.64558 9.23852 8.82979C9.01158 9.014 8.75663 9.10611 8.47368 9.10611C8.19074 9.10611 7.93603 9.014 7.70958 8.82979C7.48312 8.64558 7.3694 8.36926 7.36842 8.00084ZM0 10.5429V7.98242C0 7.6754 0.107579 7.41456 0.322737 7.1999C0.537895 6.98523 0.798737 6.87765 1.10526 6.87716C1.41179 6.87667 1.67288 6.98425 1.88853 7.1999C2.10418 7.41554 2.21151 7.67639 2.21053 7.98242V10.5429C2.21053 10.9114 2.09705 11.1877 1.87011 11.3719C1.64316 11.5561 1.38821 11.6482 1.10526 11.6482C0.822316 11.6482 0.567614 11.5561 0.341158 11.3719C0.114702 11.1877 0.000982456 10.9114 0 10.5429ZM1.76842 15.0193C1.44912 15.0193 1.22488 14.8689 1.09568 14.5683C0.966491 14.2677 1.01881 14.0005 1.25263 13.7666L4.27368 10.7456C4.40877 10.6105 4.57161 10.5368 4.76221 10.5245C4.95281 10.5122 5.12154 10.5736 5.26842 10.7087L7.36842 12.514L11.4947 8.38769H11.0526C10.8439 8.38769 10.669 8.31695 10.528 8.17547C10.387 8.034 10.3163 7.85912 10.3158 7.65084C10.3153 7.44256 10.386 7.26769 10.528 7.12621C10.67 6.98474 10.8448 6.914 11.0526 6.914H13.2632C13.4719 6.914 13.647 6.98474 13.7885 7.12621C13.93 7.26769 14.0005 7.44256 14 7.65084V9.86137C14 10.0701 13.9293 10.2453 13.7878 10.3867C13.6463 10.5282 13.4714 10.5987 13.2632 10.5982C13.0549 10.5977 12.88 10.527 12.7385 10.386C12.5971 10.245 12.5263 10.0701 12.5263 9.86137V9.41926L7.92105 14.0245C7.78596 14.1596 7.62312 14.2333 7.43253 14.2456C7.24193 14.2579 7.07319 14.1965 6.92631 14.0614L4.82631 12.2561L2.28421 14.7982C2.22281 14.8596 2.14618 14.9119 2.05432 14.9552C1.96246 14.9984 1.86716 15.0198 1.76842 15.0193Z" fill="white"/>
</svg>
