<svg width="14" height="13" viewBox="0 0 14 13" fill="none" xmlns="http://www.w3.org/2000/svg">
<path d="M1.6616 1.74596H12.3384C12.7578 1.74596 13.101 1.40278 13.101 0.983331C13.101 0.563886 12.7578 0.220703 12.3384 0.220703H1.6616C1.24216 0.220703 0.898974 0.563886 0.898974 0.983331C0.898974 1.40278 1.24216 1.74596 1.6616 1.74596ZM13.223 3.11869C13.1544 2.76788 12.8417 2.50859 12.4757 2.50859H1.52433C1.15827 2.50859 0.84559 2.76788 0.776954 3.11869L0.0143256 6.93183C-0.0771898 7.40466 0.281245 7.84698 0.761701 7.84698H0.898974V11.6601C0.898974 12.0796 1.24216 12.4228 1.6616 12.4228H7.76263C8.18207 12.4228 8.52526 12.0796 8.52526 11.6601V7.84698H11.5758V11.6601C11.5758 12.0796 11.919 12.4228 12.3384 12.4228C12.7578 12.4228 13.101 12.0796 13.101 11.6601V7.84698H13.2383C13.7188 7.84698 14.0772 7.40466 13.9857 6.93183L13.223 3.11869ZM7 10.8975H2.42423V7.84698H7V10.8975Z" fill="white"/>
</svg>
