<svg width="25" height="21" viewBox="0 0 25 21" fill="none" xmlns="http://www.w3.org/2000/svg">
<path fill-rule="evenodd" clip-rule="evenodd" d="M6.82297 0.7077C10.5803 0.424697 14.3543 0.443336 18.1087 0.763439L20.3717 0.955738C21.2019 1.02674 21.9842 1.37477 22.5927 1.94391C23.2013 2.51305 23.6009 3.27025 23.7272 4.09384L23.8693 5.02608C24.3529 8.18636 24.3077 11.405 23.7356 14.5505C23.5993 15.3028 23.203 15.9834 22.6159 16.4732C22.0288 16.963 21.2882 17.2309 20.5236 17.2301H8.01578C7.72733 17.2301 7.44446 17.3012 7.19084 17.4378L1.74096 20.3668C1.58171 20.4524 1.40298 20.4952 1.22223 20.4911C1.04149 20.4869 0.86492 20.4359 0.70977 20.3431C0.554619 20.2503 0.426198 20.1188 0.337054 19.9616C0.247909 19.8043 0.201091 19.6265 0.201172 19.4458V7.57753C0.201531 5.84528 0.856287 4.1771 2.03432 2.90708C3.21235 1.63706 4.82668 0.85896 6.55403 0.728602L6.82297 0.7077ZM6.82018 7.60122C6.35821 7.60122 5.91517 7.78474 5.58851 8.11139C5.26185 8.43805 5.07833 8.8811 5.07833 9.34306C5.07833 9.80503 5.26185 10.2481 5.58851 10.5747C5.91517 10.9014 6.35821 11.0849 6.82018 11.0849C7.28214 11.0849 7.72519 10.9014 8.05185 10.5747C8.37851 10.2481 8.56202 9.80503 8.56202 9.34306C8.56202 8.8811 8.37851 8.43805 8.05185 8.11139C7.72519 7.78474 7.28214 7.60122 6.82018 7.60122ZM12.3941 7.60122C11.9321 7.60122 11.4891 7.78474 11.1624 8.11139C10.8358 8.43805 10.6522 8.8811 10.6522 9.34306C10.6522 9.80503 10.8358 10.2481 11.1624 10.5747C11.4891 10.9014 11.9321 11.0849 12.3941 11.0849C12.856 11.0849 13.2991 10.9014 13.6257 10.5747C13.9524 10.2481 14.1359 9.80503 14.1359 9.34306C14.1359 8.8811 13.9524 8.43805 13.6257 8.11139C13.2991 7.78474 12.856 7.60122 12.3941 7.60122ZM16.2261 9.34306C16.2261 8.8811 16.4097 8.43805 16.7363 8.11139C17.063 7.78474 17.506 7.60122 17.968 7.60122C18.4299 7.60122 18.873 7.78474 19.1997 8.11139C19.5263 8.43805 19.7098 8.8811 19.7098 9.34306C19.7098 9.80503 19.5263 10.2481 19.1997 10.5747C18.873 10.9014 18.4299 11.0849 17.968 11.0849C17.506 11.0849 17.063 10.9014 16.7363 10.5747C16.4097 10.2481 16.2261 9.80503 16.2261 9.34306Z" fill="#FB657A"/>
</svg>
