<svg width="16" height="16" viewBox="0 0 16 16" fill="none" xmlns="http://www.w3.org/2000/svg">
<path d="M13.6176 11.9015L12.6087 12.8416C11.8653 13.5286 10.9003 14.4126 9.71377 15.4936C9.35716 15.8184 8.8805 16 8.38444 16C7.88838 16 7.41174 15.8184 7.05512 15.4936L4.08792 12.7743C3.71451 12.4295 3.40229 12.1386 3.15127 11.9015C2.11634 10.9265 1.41156 9.68422 1.12605 8.33182C0.840542 6.97943 0.987129 5.57765 1.54727 4.30373C2.10742 3.02982 3.05597 1.94099 4.27297 1.17494C5.48998 0.40888 6.92078 0 8.38444 0C9.84811 0 11.2789 0.40888 12.4959 1.17494C13.7129 1.94099 14.6615 3.02982 15.2216 4.30373C15.7818 5.57765 15.9283 6.97943 15.6428 8.33182C15.3573 9.68422 14.6525 10.9265 13.6176 11.9015ZM10.5093 7.19171C10.5093 6.6608 10.2855 6.15163 9.88697 5.77622C9.48847 5.40081 8.948 5.18991 8.38444 5.18991C7.82089 5.18991 7.28042 5.40081 6.88192 5.77622C6.48343 6.15163 6.25956 6.6608 6.25956 7.19171C6.25956 7.72262 6.48343 8.23178 6.88192 8.60719C7.28042 8.9826 7.82089 9.19351 8.38444 9.19351C8.948 9.19351 9.48847 8.9826 9.88697 8.60719C10.2855 8.23178 10.5093 7.72262 10.5093 7.19171Z" fill="#FB657A"/>
</svg>
