<svg width="25" height="25" viewBox="0 0 25 25" fill="none" xmlns="http://www.w3.org/2000/svg">
<path d="M23.4821 15.2L14.9021 23.78C14.6621 24.02 14.3921 24.2 14.0921 24.32C13.7921 24.44 13.4921 24.5 13.1921 24.5C12.8921 24.5 12.5921 24.44 12.2921 24.32C11.9921 24.2 11.7221 24.02 11.4821 23.78L0.892148 13.19C0.672148 12.97 0.502149 12.7152 0.382149 12.4256C0.262149 12.136 0.202148 11.8308 0.202148 11.51V2.9C0.202148 2.24 0.437348 1.6752 0.907748 1.2056C1.37815 0.736 1.94295 0.5008 2.60215 0.5H11.2121C11.5321 0.5 11.8421 0.5652 12.1421 0.6956C12.4421 0.826 12.7021 1.0008 12.9221 1.22L23.4821 11.81C23.7221 12.05 23.8973 12.32 24.0077 12.62C24.1181 12.92 24.1729 13.22 24.1721 13.52C24.1713 13.82 24.1165 14.1152 24.0077 14.4056C23.8989 14.696 23.7237 14.9608 23.4821 15.2ZM5.60215 7.7C6.10215 7.7 6.52735 7.5252 6.87775 7.1756C7.22815 6.826 7.40295 6.4008 7.40215 5.9C7.40135 5.3992 7.22655 4.9744 6.87775 4.6256C6.52895 4.2768 6.10375 4.1016 5.60215 4.1C5.10055 4.0984 4.67575 4.2736 4.32775 4.6256C3.97975 4.9776 3.80455 5.4024 3.80215 5.9C3.79975 6.3976 3.97495 6.8228 4.32775 7.1756C4.68055 7.5284 5.10535 7.7032 5.60215 7.7Z" fill="#FB657A"/>
</svg>
